<svg width="30" height="30" viewBox="0 0 30 30" fill="none" xmlns="http://www.w3.org/2000/svg">
<g clip-path="url(#clip0_6_3)">
<g filter="url(#filter0_i_6_3)">
<circle cx="15" cy="15" r="15" fill="#092061"/>
</g>
<g filter="url(#filter1_i_6_3)">
<circle cx="14" cy="82" r="64" fill="#171717"/>
</g>
<path d="M6 8C6 8.5 5.5 9 5 9C5.5 9 6.00878 9.5 6 10C6.00878 9.5 6.5 9 7 9C6.5 9 6 8.5 6 8Z" fill="#D9D9D9"/>
<path d="M15.5 2C15.5 2.75 14.75 3.5 14 3.5C14.75 3.5 15.5132 4.25 15.5 5C15.5132 4.25 16.25 3.5 17 3.5C16.25 3.5 15.5 2.75 15.5 2Z" fill="#D9D9D9"/>
<path d="M16 7C16 7.5 15.5 8 15 8C15.5 8 16.0088 8.5 16 9C16.0088 8.5 16.5 8 17 8C16.5 8 16 7.5 16 7Z" fill="#D9D9D9"/>
<path d="M8.5 7C8.5 7.25 8.25 7.5 8 7.5C8.25 7.5 8.50439 7.75 8.5 8C8.50439 7.75 8.75 7.5 9 7.5C8.75 7.5 8.5 7.25 8.5 7Z" fill="#D9D9D9"/>
<path d="M18 5C18 5.25 17.75 5.5 17.5 5.5C17.75 5.5 18.0044 5.75 18 6C18.0044 5.75 18.25 5.5 18.5 5.5C18.25 5.5 18 5.25 18 5Z" fill="#D9D9D9"/>
<path d="M13.5 6C13.5 6.25 13.25 6.5 13 6.5C13.25 6.5 13.5044 6.75 13.5 7C13.5044 6.75 13.75 6.5 14 6.5C13.75 6.5 13.5 6.25 13.5 6Z" fill="#D9D9D9"/>
<path d="M10 4C10 4.5 9.5 5 9 5C9.5 5 10.0088 5.5 10 6C10.0088 5.5 10.5 5 11 5C10.5 5 10 4.5 10 4Z" fill="#D9D9D9"/>
<path d="M12.5 8C12.5 8.75 11.75 9.5 11 9.5C11.75 9.5 12.5132 10.25 12.5 11C12.5132 10.25 13.25 9.5 14 9.5C13.25 9.5 12.5 8.75 12.5 8Z" fill="#D9D9D9"/>
<g filter="url(#filter2_i_6_3)">
<circle cx="22.5" cy="8.5" r="3.5" fill="#ABABAB"/>
</g>
<g filter="url(#filter3_i_6_3)">
<circle cx="21.75" cy="9.75" r="0.75" fill="#8E8E8E"/>
</g>
<g filter="url(#filter4_i_6_3)">
<circle cx="21" cy="7.8" r="0.5" fill="#8D8D8D"/>
</g>
<g filter="url(#filter5_i_6_3)">
<circle cx="23.35" cy="9.15" r="0.35" fill="#8D8D8D"/>
</g>
</g>
<defs>
<filter id="filter0_i_6_3" x="0" y="0" width="30" height="32" filterUnits="userSpaceOnUse" color-interpolation-filters="sRGB">
<feFlood flood-opacity="0" result="BackgroundImageFix"/>
<feBlend mode="normal" in="SourceGraphic" in2="BackgroundImageFix" result="shape"/>
<feColorMatrix in="SourceAlpha" type="matrix" values="0 0 0 0 0 0 0 0 0 0 0 0 0 0 0 0 0 0 127 0" result="hardAlpha"/>
<feOffset dy="2"/>
<feGaussianBlur stdDeviation="2"/>
<feComposite in2="hardAlpha" operator="arithmetic" k2="-1" k3="1"/>
<feColorMatrix type="matrix" values="0 0 0 0 0 0 0 0 0 0 0 0 0 0 0 0 0 0 0.25 0"/>
<feBlend mode="normal" in2="shape" result="effect1_innerShadow_6_3"/>
</filter>
<filter id="filter1_i_6_3" x="-50" y="18" width="128" height="132" filterUnits="userSpaceOnUse" color-interpolation-filters="sRGB">
<feFlood flood-opacity="0" result="BackgroundImageFix"/>
<feBlend mode="normal" in="SourceGraphic" in2="BackgroundImageFix" result="shape"/>
<feColorMatrix in="SourceAlpha" type="matrix" values="0 0 0 0 0 0 0 0 0 0 0 0 0 0 0 0 0 0 127 0" result="hardAlpha"/>
<feOffset dy="4"/>
<feGaussianBlur stdDeviation="2"/>
<feComposite in2="hardAlpha" operator="arithmetic" k2="-1" k3="1"/>
<feColorMatrix type="matrix" values="0 0 0 0 0 0 0 0 0 0 0 0 0 0 0 0 0 0 0.25 0"/>
<feBlend mode="normal" in2="shape" result="effect1_innerShadow_6_3"/>
</filter>
<filter id="filter2_i_6_3" x="19" y="5" width="7" height="7.2" filterUnits="userSpaceOnUse" color-interpolation-filters="sRGB">
<feFlood flood-opacity="0" result="BackgroundImageFix"/>
<feBlend mode="normal" in="SourceGraphic" in2="BackgroundImageFix" result="shape"/>
<feColorMatrix in="SourceAlpha" type="matrix" values="0 0 0 0 0 0 0 0 0 0 0 0 0 0 0 0 0 0 127 0" result="hardAlpha"/>
<feOffset dy="0.2"/>
<feGaussianBlur stdDeviation="0.25"/>
<feComposite in2="hardAlpha" operator="arithmetic" k2="-1" k3="1"/>
<feColorMatrix type="matrix" values="0 0 0 0 0 0 0 0 0 0 0 0 0 0 0 0 0 0 0.5 0"/>
<feBlend mode="normal" in2="shape" result="effect1_innerShadow_6_3"/>
</filter>
<filter id="filter3_i_6_3" x="21" y="9" width="1.5" height="1.6" filterUnits="userSpaceOnUse" color-interpolation-filters="sRGB">
<feFlood flood-opacity="0" result="BackgroundImageFix"/>
<feBlend mode="normal" in="SourceGraphic" in2="BackgroundImageFix" result="shape"/>
<feColorMatrix in="SourceAlpha" type="matrix" values="0 0 0 0 0 0 0 0 0 0 0 0 0 0 0 0 0 0 127 0" result="hardAlpha"/>
<feOffset dy="0.1"/>
<feGaussianBlur stdDeviation="0.1"/>
<feComposite in2="hardAlpha" operator="arithmetic" k2="-1" k3="1"/>
<feColorMatrix type="matrix" values="0 0 0 0 0 0 0 0 0 0 0 0 0 0 0 0 0 0 0.25 0"/>
<feBlend mode="normal" in2="shape" result="effect1_innerShadow_6_3"/>
</filter>
<filter id="filter4_i_6_3" x="20.5" y="7.3" width="1" height="1.1" filterUnits="userSpaceOnUse" color-interpolation-filters="sRGB">
<feFlood flood-opacity="0" result="BackgroundImageFix"/>
<feBlend mode="normal" in="SourceGraphic" in2="BackgroundImageFix" result="shape"/>
<feColorMatrix in="SourceAlpha" type="matrix" values="0 0 0 0 0 0 0 0 0 0 0 0 0 0 0 0 0 0 127 0" result="hardAlpha"/>
<feOffset dy="0.1"/>
<feGaussianBlur stdDeviation="0.1"/>
<feComposite in2="hardAlpha" operator="arithmetic" k2="-1" k3="1"/>
<feColorMatrix type="matrix" values="0 0 0 0 0 0 0 0 0 0 0 0 0 0 0 0 0 0 0.25 0"/>
<feBlend mode="normal" in2="shape" result="effect1_innerShadow_6_3"/>
</filter>
<filter id="filter5_i_6_3" x="23" y="8.8" width="0.700001" height="0.8" filterUnits="userSpaceOnUse" color-interpolation-filters="sRGB">
<feFlood flood-opacity="0" result="BackgroundImageFix"/>
<feBlend mode="normal" in="SourceGraphic" in2="BackgroundImageFix" result="shape"/>
<feColorMatrix in="SourceAlpha" type="matrix" values="0 0 0 0 0 0 0 0 0 0 0 0 0 0 0 0 0 0 127 0" result="hardAlpha"/>
<feOffset dy="0.1"/>
<feGaussianBlur stdDeviation="0.1"/>
<feComposite in2="hardAlpha" operator="arithmetic" k2="-1" k3="1"/>
<feColorMatrix type="matrix" values="0 0 0 0 0 0 0 0 0 0 0 0 0 0 0 0 0 0 0.25 0"/>
<feBlend mode="normal" in2="shape" result="effect1_innerShadow_6_3"/>
</filter>
<clipPath id="clip0_6_3">
<rect width="30" height="30" rx="15" fill="white"/>
</clipPath>
</defs>
</svg>
